<svg width="12" height="12" viewBox="0 0 12 12" fill="none" xmlns="http://www.w3.org/2000/svg">
<path fill-rule="evenodd" clip-rule="evenodd" d="M1.50005 6C1.50005 5.40905 1.61645 4.82389 1.84261 4.27792C2.06876 3.73196 2.40025 3.23588 2.81813 2.81802C3.23602 2.40016 3.73212 2.06869 4.27811 1.84254C4.8241 1.6164 5.40929 1.5 6.00027 1.5C6.59124 1.5 7.17643 1.6164 7.72242 1.84254C8.26842 2.06869 8.76452 2.40016 9.1824 2.81802C9.60028 3.23588 9.93177 3.73196 10.1579 4.27792C10.3841 4.82389 10.5005 5.40905 10.5005 6C10.5005 7.19347 10.0264 8.33807 9.1824 9.18198C8.33844 10.0259 7.1938 10.5 6.00027 10.5C4.80673 10.5 3.66209 10.0259 2.81813 9.18198C1.97418 8.33807 1.50005 7.19347 1.50005 6ZM6.00027 0.5C2.96262 0.5 0.5 2.9625 0.5 6C0.5 9.0375 2.96262 11.5 6.00027 11.5C9.03791 11.5 11.5005 9.0375 11.5005 6C11.5005 2.9625 9.03791 0.5 6.00027 0.5ZM6.50029 3.5C6.50029 3.36739 6.44761 3.24021 6.35384 3.14645C6.26006 3.05268 6.13288 3 6.00027 3C5.86765 3 5.74047 3.05268 5.6467 3.14645C5.55292 3.24021 5.50024 3.36739 5.50024 3.5V5.5H3.50014C3.36753 5.5 3.24035 5.55268 3.14657 5.64645C3.0528 5.74021 3.00012 5.86739 3.00012 6C3.00012 6.13261 3.0528 6.25979 3.14657 6.35355C3.24035 6.44732 3.36753 6.5 3.50014 6.5H5.50024V8.5C5.50024 8.63261 5.55292 8.75979 5.6467 8.85355C5.74047 8.94732 5.86765 9 6.00027 9C6.13288 9 6.26006 8.94732 6.35384 8.85355C6.44761 8.75979 6.50029 8.63261 6.50029 8.5V6.5H8.50039C8.633 6.5 8.76018 6.44732 8.85396 6.35355C8.94773 6.25979 9.00041 6.13261 9.00041 6C9.00041 5.86739 8.94773 5.74021 8.85396 5.64645C8.76018 5.55268 8.633 5.5 8.50039 5.5H6.50029V3.5Z" fill="#599CFF"/>
</svg>
