<svg width="16" height="16" viewBox="0 0 16 16" fill="none" xmlns="http://www.w3.org/2000/svg">
<path fill-rule="evenodd" clip-rule="evenodd" d="M2.0001 8.00008C2.0001 7.21215 2.1553 6.43193 2.45685 5.70398C2.75839 4.97603 3.20037 4.31459 3.75755 3.75744C4.31473 3.20029 4.97619 2.75833 5.70418 2.4568C6.43217 2.15528 7.21243 2.00008 8.0004 2.00008C8.78837 2.00008 9.56862 2.15528 10.2966 2.4568C11.0246 2.75833 11.6861 3.20029 12.2432 3.75744C12.8004 4.31459 13.2424 4.97603 13.544 5.70398C13.8455 6.43193 14.0007 7.21215 14.0007 8.00008C14.0007 9.59138 13.3685 11.1175 12.2432 12.2427C11.118 13.3679 9.59178 14.0001 8.0004 14.0001C6.40902 14.0001 4.88282 13.3679 3.75755 12.2427C2.63227 11.1175 2.0001 9.59138 2.0001 8.00008ZM8.0004 0.666748C3.9502 0.666748 0.666702 3.95008 0.666702 8.00008C0.666702 12.0501 3.9502 15.3334 8.0004 15.3334C12.0506 15.3334 15.3341 12.0501 15.3341 8.00008C15.3341 3.95008 12.0506 0.666748 8.0004 0.666748ZM5.13826 6.19542C5.01252 6.07398 4.84411 6.00678 4.6693 6.0083C4.49449 6.00982 4.32728 6.07993 4.20367 6.20354C4.08005 6.32714 4.00994 6.49435 4.00842 6.66915C4.0069 6.84395 4.0741 7.01235 4.19554 7.13808L7.52904 10.4714C7.65407 10.5964 7.82361 10.6666 8.0004 10.6666C8.17718 10.6666 8.34673 10.5964 8.47176 10.4714L11.8053 7.13808C11.9267 7.01235 11.9939 6.84395 11.9924 6.66915C11.9909 6.49435 11.9207 6.32714 11.7971 6.20354C11.6735 6.07993 11.5063 6.00982 11.3315 6.0083C11.1567 6.00678 10.9883 6.07398 10.8625 6.19542L8.0004 9.05742L5.13826 6.19542Z" fill="#45A6FF"/>
</svg>
