<svg width="10" height="10" viewBox="0 0 10 10" fill="none" xmlns="http://www.w3.org/2000/svg">
<path fill-rule="evenodd" clip-rule="evenodd" d="M1 5C1 3.93913 1.42143 2.92172 2.17157 2.17157C2.92172 1.42143 3.93913 1 5 1C6.06087 1 7.07828 1.42143 7.82843 2.17157C8.57857 2.92172 9 3.93913 9 5C9 6.06087 8.57857 7.07828 7.82843 7.82843C7.07828 8.57857 6.06087 9 5 9C3.93913 9 2.92172 8.57857 2.17157 7.82843C1.42143 7.07828 1 6.06087 1 5ZM5 0C2.2385 0 0 2.2385 0 5C0 7.7615 2.2385 10 5 10C7.7615 10 10 7.7615 10 5C10 2.2385 7.7615 0 5 0ZM5.5 2C5.5 1.86739 5.44732 1.74021 5.35355 1.64645C5.25979 1.55268 5.13261 1.5 5 1.5C4.86739 1.5 4.74021 1.55268 4.64645 1.64645C4.55268 1.74021 4.5 1.86739 4.5 2V5C4.50003 5.1326 4.55273 5.25975 4.6465 5.3535L6.1465 6.8535C6.2408 6.94458 6.3671 6.99498 6.4982 6.99384C6.6293 6.9927 6.75471 6.94011 6.84741 6.84741C6.94011 6.75471 6.9927 6.6293 6.99384 6.4982C6.99498 6.3671 6.94458 6.2408 6.8535 6.1465L5.5 4.793V2Z" fill="#979797"/>
</svg>
