<svg width="16" height="12" viewBox="0 0 16 12" fill="none" xmlns="http://www.w3.org/2000/svg">
<path fill-rule="evenodd" clip-rule="evenodd" d="M4.86354 4.50123C4.86354 3.70571 5.17956 2.94277 5.74208 2.38025C6.30459 1.81774 7.06753 1.50172 7.86305 1.50172C8.65857 1.50172 9.42151 1.81774 9.98402 2.38025C10.5465 2.94277 10.8626 3.70571 10.8626 4.50123V5.2511H11.6124C11.9571 5.2511 12.2984 5.31899 12.6168 5.45089C12.9352 5.58278 13.2246 5.77611 13.4683 6.01982C13.712 6.26354 13.9053 6.55287 14.0372 6.87129C14.1691 7.18972 14.237 7.53101 14.237 7.87567C14.237 8.22034 14.1691 8.56162 14.0372 8.88005C13.9053 9.19848 13.712 9.48781 13.4683 9.73153C13.2246 9.97524 12.9352 10.1686 12.6168 10.3005C12.2984 10.4324 11.9571 10.5002 11.6124 10.5002H11.5374C11.3386 10.5002 11.1478 10.5792 11.0072 10.7199C10.8666 10.8605 10.7876 11.0512 10.7876 11.2501C10.7876 11.449 10.8666 11.6397 11.0072 11.7804C11.1478 11.921 11.3386 12 11.5374 12H11.6124C12.6466 12.0013 13.6435 11.6141 14.4056 10.915C15.1678 10.2159 15.6394 9.25604 15.7272 8.22559C15.8149 7.19515 15.5123 6.16934 14.8794 5.35148C14.2464 4.53362 13.3293 3.98339 12.3098 3.80984C12.1451 2.74868 11.6064 1.7814 10.7909 1.08271C9.97538 0.384025 8.93692 0 7.86305 0C6.78918 0 5.75072 0.384025 4.93522 1.08271C4.11973 1.7814 3.58098 2.74868 3.41628 3.80984C2.40011 3.98724 1.48725 4.53887 0.857647 5.35598C0.228042 6.17309 -0.072634 7.19641 0.0148842 8.22424C0.102402 9.25206 0.571766 10.2098 1.33046 10.9087C2.08915 11.6076 3.08213 11.997 4.11366 12H4.18865C4.38753 12 4.57827 11.921 4.7189 11.7804C4.85952 11.6397 4.93853 11.449 4.93853 11.2501C4.93853 11.0512 4.85952 10.8605 4.7189 10.7199C4.57827 10.5792 4.38753 10.5002 4.18865 10.5002H4.11366C3.769 10.5002 3.42771 10.4324 3.10928 10.3005C2.79086 10.1686 2.50153 9.97524 2.25781 9.73153C2.0141 9.48781 1.82077 9.19848 1.68888 8.88005C1.55698 8.56162 1.48909 8.22034 1.48909 7.87567C1.48909 7.53101 1.55698 7.18972 1.68888 6.87129C1.82077 6.55287 2.0141 6.26354 2.25781 6.01982C2.50153 5.77611 2.79086 5.58278 3.10928 5.45089C3.42771 5.31899 3.769 5.2511 4.11366 5.2511H4.86354V4.50123ZM8.61293 5.2511C8.61293 5.05222 8.53392 4.86149 8.39329 4.72086C8.25266 4.58023 8.06193 4.50123 7.86305 4.50123C7.66417 4.50123 7.47344 4.58023 7.33281 4.72086C7.19218 4.86149 7.11317 5.05222 7.11317 5.2511V9.43992L6.14358 8.47033C6.00215 8.33373 5.81273 8.25815 5.61612 8.25986C5.4195 8.26156 5.23142 8.34043 5.09239 8.47946C4.95336 8.61849 4.87449 8.80657 4.87278 9.00319C4.87108 9.1998 4.94666 9.38922 5.08326 9.53065L7.33289 11.7803C7.47351 11.9209 7.66421 11.9998 7.86305 11.9998C8.06189 11.9998 8.25259 11.9209 8.39321 11.7803L10.6428 9.53065C10.7794 9.38922 10.855 9.1998 10.8533 9.00319C10.8516 8.80657 10.7727 8.61849 10.6337 8.47946C10.4947 8.34043 10.3066 8.26156 10.11 8.25986C9.91337 8.25815 9.72395 8.33373 9.58252 8.47033L8.61293 9.43992V5.2511Z" fill="#45A6FF"/>
</svg>
