<svg width="12" height="12" viewBox="0 0 12 12" fill="none" xmlns="http://www.w3.org/2000/svg">
<path fill-rule="evenodd" clip-rule="evenodd" d="M4.19563 0.195465C4.32064 0.0704259 4.49019 0.00015983 4.66699 0.00012207H7.33379C7.86425 0.00012207 8.37298 0.210846 8.74807 0.585937C9.12316 0.961028 9.33388 1.46976 9.33388 2.00022V8.00051C9.33388 8.53097 9.12316 9.0397 8.74807 9.41479C8.37298 9.78989 7.86425 10.0006 7.33379 10.0006H2.66689C2.13644 10.0006 1.6277 9.78989 1.25261 9.41479C0.877521 9.0397 0.666797 8.53097 0.666797 8.00051V4.00032C0.666834 3.82351 0.737101 3.65396 0.86214 3.52896L4.19563 0.195465ZM7.33379 1.33352H5.33369V4.00032C5.33369 4.17714 5.26345 4.34671 5.13842 4.47174C5.01339 4.59677 4.84381 4.66702 4.66699 4.66702H2.00019V8.00051C2.00019 8.17733 2.07044 8.34691 2.19547 8.47194C2.3205 8.59697 2.49007 8.66721 2.66689 8.66721H7.33379C7.51061 8.66721 7.68018 8.59697 7.80521 8.47194C7.93024 8.34691 8.00049 8.17733 8.00049 8.00051V2.00022C8.00049 1.8234 7.93024 1.65382 7.80521 1.52879C7.68018 1.40376 7.51061 1.33352 7.33379 1.33352ZM2.94291 3.33362H4.00029V2.27623L2.94291 3.33362ZM10.6673 1.33352C10.8441 1.33352 11.0137 1.40376 11.1387 1.52879C11.2637 1.65382 11.334 1.8234 11.334 2.00022V10.0006C11.334 10.5311 11.1233 11.0398 10.7482 11.4149C10.3731 11.79 9.86434 12.0007 9.33388 12.0007H2.66689C2.49007 12.0007 2.3205 11.9305 2.19547 11.8054C2.07044 11.6804 2.00019 11.5108 2.00019 11.334C2.00019 11.1572 2.07044 10.9876 2.19547 10.8626C2.3205 10.7375 2.49007 10.6673 2.66689 10.6673H9.33388C9.5107 10.6673 9.68028 10.5971 9.80531 10.472C9.93034 10.347 10.0006 10.1774 10.0006 10.0006V2.00022C10.0006 1.8234 10.0708 1.65382 10.1959 1.52879C10.3209 1.40376 10.4905 1.33352 10.6673 1.33352Z" fill="white"/>
</svg>
