<svg width="12" height="12" viewBox="0 0 12 12" fill="none" xmlns="http://www.w3.org/2000/svg">
<path fill-rule="evenodd" clip-rule="evenodd" d="M1.50005 6C1.50005 5.40905 1.61645 4.82389 1.84261 4.27792C2.06876 3.73196 2.40025 3.23588 2.81813 2.81802C3.23602 2.40016 3.73212 2.06869 4.27811 1.84254C4.8241 1.6164 5.40929 1.5 6.00027 1.5C6.59124 1.5 7.17643 1.6164 7.72242 1.84254C8.26842 2.06869 8.76452 2.40016 9.1824 2.81802C9.60028 3.23588 9.93177 3.73196 10.1579 4.27792C10.3841 4.82389 10.5005 5.40905 10.5005 6C10.5005 7.19347 10.0264 8.33807 9.1824 9.18198C8.33844 10.0259 7.1938 10.5 6.00027 10.5C4.80673 10.5 3.66209 10.0259 2.81813 9.18198C1.97418 8.33807 1.50005 7.19347 1.50005 6ZM6.00027 0.5C2.96262 0.5 0.5 2.9625 0.5 6C0.5 9.0375 2.96262 11.5 6.00027 11.5C9.03791 11.5 11.5005 9.0375 11.5005 6C11.5005 2.9625 9.03791 0.5 6.00027 0.5ZM4.5862 3.8785C4.49237 3.78468 4.36512 3.73197 4.23243 3.73197C4.09974 3.73197 3.97249 3.78468 3.87866 3.8785C3.78484 3.97232 3.73213 4.09957 3.73213 4.23225C3.73213 4.29795 3.74507 4.363 3.77021 4.4237C3.79535 4.48439 3.83221 4.53954 3.87866 4.586L5.29323 6L3.87866 7.414C3.78484 7.50782 3.73213 7.63507 3.73213 7.76775C3.73213 7.90043 3.78484 8.02768 3.87866 8.1215C3.97249 8.21532 4.09974 8.26803 4.23243 8.26803C4.36512 8.26803 4.49237 8.21532 4.5862 8.1215L6.00027 6.707L7.41483 8.1215C7.46129 8.16792 7.51644 8.20474 7.57712 8.22985C7.63781 8.25496 7.70285 8.26787 7.76853 8.26785C7.8342 8.26783 7.89923 8.25487 7.9599 8.22971C8.02057 8.20456 8.07569 8.1677 8.12212 8.12125C8.16854 8.07479 8.20536 8.01965 8.23047 7.95897C8.25559 7.89828 8.2685 7.83325 8.26848 7.76757C8.26845 7.7019 8.25549 7.63687 8.23034 7.57621C8.20518 7.51554 8.16833 7.46042 8.12187 7.414L6.7073 6L8.12187 4.586C8.21569 4.49225 8.26843 4.36506 8.26848 4.23243C8.26852 4.09979 8.21588 3.97257 8.12212 3.87875C8.02836 3.78493 7.90117 3.7322 7.76853 3.73215C7.63589 3.7321 7.50866 3.78475 7.41483 3.8785L6.00027 5.293L4.5862 3.8785Z" fill="#EB5853"/>
</svg>
