<svg width="18" height="4" viewBox="0 0 18 4" fill="none" xmlns="http://www.w3.org/2000/svg">
<path fill-rule="evenodd" clip-rule="evenodd" d="M3.6 2C3.6 2.26264 3.55344 2.52272 3.46298 2.76537C3.37252 3.00802 3.23994 3.2285 3.07279 3.41421C2.90565 3.59993 2.70722 3.74725 2.48883 3.84776C2.27044 3.94827 2.03638 4 1.8 4C1.56362 4 1.32956 3.94827 1.11117 3.84776C0.892784 3.74725 0.694353 3.59993 0.527208 3.41421C0.360062 3.2285 0.227475 3.00802 0.137017 2.76537C0.0465585 2.52272 -3.52233e-09 2.26264 0 2C7.11366e-09 1.46957 0.189642 0.960859 0.527208 0.585786C0.864773 0.210713 1.32261 0 1.8 0C2.27739 0 2.73523 0.210713 3.07279 0.585786C3.41036 0.960859 3.6 1.46957 3.6 2ZM18 2C18 2.53043 17.8104 3.03914 17.4728 3.41421C17.1352 3.78929 16.6774 4 16.2 4C15.7226 4 15.2648 3.78929 14.9272 3.41421C14.5896 3.03914 14.4 2.53043 14.4 2C14.4 1.46957 14.5896 0.960859 14.9272 0.585786C15.2648 0.210713 15.7226 0 16.2 0C16.6774 0 17.1352 0.210713 17.4728 0.585786C17.8104 0.960859 18 1.46957 18 2ZM9 4C9.47739 4 9.93523 3.78929 10.2728 3.41421C10.6104 3.03914 10.8 2.53043 10.8 2C10.8 1.46957 10.6104 0.960859 10.2728 0.585786C9.93523 0.210713 9.47739 0 9 0C8.52261 0 8.06477 0.210713 7.72721 0.585786C7.38964 0.960859 7.2 1.46957 7.2 2C7.2 2.53043 7.38964 3.03914 7.72721 3.41421C8.06477 3.78929 8.52261 4 9 4Z" fill="#979797"/>
</svg>
