<svg width="10" height="10" viewBox="0 0 10 10" fill="none" xmlns="http://www.w3.org/2000/svg">
<path fill-rule="evenodd" clip-rule="evenodd" d="M5.73035 0.879561C5.41367 0.304144 4.58654 0.304144 4.27028 0.879561L0.390923 7.93164C0.0863254 8.48748 0.487595 9.16665 1.12179 9.16665H8.87967C9.51345 9.16665 9.91513 8.48748 9.6097 7.93164L5.73035 0.879561ZM5.00031 1.28123L8.87967 8.33331H1.12096L5.00031 1.28123ZM5.00031 3.33331C5.11083 3.33331 5.21681 3.37721 5.29495 3.45535C5.3731 3.53349 5.417 3.63947 5.417 3.74998V5.83331C5.417 5.94382 5.3731 6.0498 5.29495 6.12794C5.21681 6.20608 5.11083 6.24998 5.00031 6.24998C4.8898 6.24998 4.78381 6.20608 4.70567 6.12794C4.62753 6.0498 4.58363 5.94382 4.58363 5.83331V3.74998C4.58363 3.63947 4.62753 3.53349 4.70567 3.45535C4.78381 3.37721 4.8898 3.33331 5.00031 3.33331ZM5.52117 7.39581C5.52117 7.53395 5.4663 7.66642 5.36862 7.7641C5.27094 7.86177 5.13845 7.91665 5.00031 7.91665C4.86217 7.91665 4.72969 7.86177 4.63201 7.7641C4.53433 7.66642 4.47945 7.53395 4.47945 7.39581C4.47945 7.25768 4.53433 7.1252 4.63201 7.02753C4.72969 6.92985 4.86217 6.87498 5.00031 6.87498C5.13845 6.87498 5.27094 6.92985 5.36862 7.02753C5.4663 7.1252 5.52117 7.25768 5.52117 7.39581Z" fill="#F13D20"/>
</svg>
