<svg width="16" height="16" viewBox="0 0 16 16" fill="none" xmlns="http://www.w3.org/2000/svg">
<path fill-rule="evenodd" clip-rule="evenodd" d="M2.00015 8.00002C2.00015 7.21209 2.15535 6.43187 2.45689 5.70392C2.75844 4.97597 3.20041 4.31453 3.75759 3.75738C4.31477 3.20023 4.97624 2.75827 5.70423 2.45674C6.43222 2.15521 7.21247 2.00002 8.00044 2.00002C8.78841 2.00002 9.56867 2.15521 10.2967 2.45674C11.0246 2.75827 11.6861 3.20023 12.2433 3.75738C12.8005 4.31453 13.2425 4.97597 13.544 5.70392C13.8455 6.43187 14.0007 7.21209 14.0007 8.00002C14.0007 9.59132 13.3686 11.1174 12.2433 12.2427C11.118 13.3679 9.59182 14 8.00044 14C6.40907 14 4.88287 13.3679 3.75759 12.2427C2.63232 11.1174 2.00015 9.59132 2.00015 8.00002ZM8.00044 0.666687C3.95024 0.666687 0.666748 3.95002 0.666748 8.00002C0.666748 12.05 3.95024 15.3334 8.00044 15.3334C12.0506 15.3334 15.3341 12.05 15.3341 8.00002C15.3341 3.95002 12.0506 0.666687 8.00044 0.666687ZM7.1384 4.19535C7.01266 4.07392 6.84425 4.00672 6.66945 4.00824C6.49464 4.00976 6.32742 4.07987 6.20381 4.20347C6.0802 4.32708 6.01008 4.49429 6.00856 4.66909C6.00704 4.84388 6.07424 5.01229 6.19569 5.13802L9.05783 8.00002L6.19569 10.862C6.13201 10.9235 6.08122 10.9971 6.04628 11.0784C6.01134 11.1598 5.99295 11.2472 5.99218 11.3358C5.99141 11.4243 6.00828 11.5121 6.0418 11.594C6.07532 11.6759 6.12483 11.7504 6.18743 11.813C6.25002 11.8755 6.32446 11.925 6.4064 11.9586C6.48833 11.9921 6.57612 12.009 6.66465 12.0082C6.75317 12.0074 6.84065 11.989 6.92199 11.9541C7.00333 11.9191 7.0769 11.8684 7.1384 11.8047L10.4719 8.47135C10.5969 8.34634 10.6671 8.1768 10.6671 8.00002C10.6671 7.82324 10.5969 7.65371 10.4719 7.52869L7.1384 4.19535Z" fill="#979797"/>
</svg>
