<svg width="12" height="12" viewBox="0 0 12 12" fill="none" xmlns="http://www.w3.org/2000/svg">
<path fill-rule="evenodd" clip-rule="evenodd" d="M4.66675 1.33335C3.78268 1.33335 2.93482 1.68454 2.30968 2.30968C1.68455 2.93481 1.33336 3.78267 1.33336 4.66674C1.33336 5.55081 1.68455 6.39867 2.30968 7.0238C2.93482 7.64893 3.78268 8.00013 4.66675 8.00013C5.55082 8.00013 6.39868 7.64893 7.02381 7.0238C7.64894 6.39867 8.00014 5.55081 8.00014 4.66674C8.00014 3.78267 7.64894 2.93481 7.02381 2.30968C6.39868 1.68454 5.55082 1.33335 4.66675 1.33335ZM1.47057e-07 4.66674C1.40656e-06 3.92757 0.175587 3.19897 0.512297 2.54094C0.849007 1.88291 1.33721 1.31427 1.9367 0.881858C2.5362 0.449442 3.22983 0.165616 3.96049 0.0537516C4.69115 -0.058113 5.43793 0.00518389 6.13934 0.23843C6.84075 0.471676 7.47672 0.868199 7.99488 1.39535C8.51304 1.92249 8.89857 2.56519 9.11973 3.2705C9.34088 3.97581 9.39133 4.72357 9.26692 5.4522C9.14251 6.18083 8.8468 6.86948 8.40414 7.46145L11.8049 10.8615C11.93 10.9865 12.0003 11.1561 12.0003 11.333C12.0004 11.5098 11.9302 11.6794 11.8052 11.8045C11.6802 11.9296 11.5106 11.9999 11.3338 12C11.1569 12.0001 10.9873 11.9299 10.8622 11.8049L7.46213 8.4048C6.76846 8.9237 5.94405 9.23928 5.0812 9.31622C4.21835 9.39315 3.35111 9.2284 2.57658 8.84041C1.80205 8.45242 1.15081 7.8565 0.695747 7.11938C0.240688 6.38225 -0.000217287 5.53301 1.47057e-07 4.66674Z" fill="#979797"/>
</svg>
