<svg width="16" height="16" viewBox="0 0 16 16" fill="none" xmlns="http://www.w3.org/2000/svg">
<path fill-rule="evenodd" clip-rule="evenodd" d="M2.00015 8.00008C2.00015 7.21215 2.15535 6.43193 2.45689 5.70398C2.75843 4.97603 3.20041 4.31459 3.75759 3.75744C4.31477 3.20029 4.97624 2.75833 5.70422 2.4568C6.43221 2.15528 7.21247 2.00008 8.00044 2.00008C8.7884 2.00008 9.56866 2.15528 10.2966 2.4568C11.0246 2.75833 11.6861 3.20029 12.2433 3.75744C12.8005 4.31459 13.2424 4.97603 13.544 5.70398C13.8455 6.43193 14.0007 7.21215 14.0007 8.00008C14.0007 9.59138 13.3686 11.1175 12.2433 12.2427C11.118 13.3679 9.59181 14.0001 8.00044 14.0001C6.40906 14.0001 4.88286 13.3679 3.75759 12.2427C2.63232 11.1175 2.00015 9.59138 2.00015 8.00008ZM8.00044 0.666748C3.95024 0.666748 0.666748 3.95008 0.666748 8.00008C0.666748 12.0501 3.95024 15.3334 8.00044 15.3334C12.0506 15.3334 15.3341 12.0501 15.3341 8.00008C15.3341 3.95008 12.0506 0.666748 8.00044 0.666748ZM4.66694 7.33341C4.49012 7.33341 4.32054 7.40365 4.19551 7.52868C4.07048 7.6537 4.00024 7.82327 4.00024 8.00008C4.00024 8.17689 4.07048 8.34646 4.19551 8.47149C4.32054 8.59651 4.49012 8.66675 4.66694 8.66675H11.3339C11.5107 8.66675 11.6803 8.59651 11.8054 8.47149C11.9304 8.34646 12.0006 8.17689 12.0006 8.00008C12.0006 7.82327 11.9304 7.6537 11.8054 7.52868C11.6803 7.40365 11.5107 7.33341 11.3339 7.33341H4.66694Z" fill="#F13D20"/>
</svg>
