<svg width="7" height="12" viewBox="0 0 7 12" fill="none" xmlns="http://www.w3.org/2000/svg">
<path fill-rule="evenodd" clip-rule="evenodd" d="M0.227734 0.219762C0.373596 0.0790484 0.5714 0 0.777649 0C0.983897 0 1.1817 0.0790484 1.32756 0.219762L6.77227 5.47387C6.91808 5.61462 7 5.8055 7 6.00453C7 6.20356 6.91808 6.39444 6.77227 6.5352L1.32756 11.7893C1.18087 11.926 0.984389 12.0017 0.780448 12C0.576508 11.9983 0.381422 11.9193 0.237209 11.7802C0.0929953 11.641 0.0111936 11.4527 0.00942137 11.2559C0.00764918 11.0591 0.0860485 10.8695 0.227734 10.728L5.12252 6.00453L0.227734 1.28109C0.081916 1.14033 0 0.949455 0 0.750426C0 0.551398 0.081916 0.360517 0.227734 0.219762Z" fill="#979797"/>
</svg>
