<svg width="26" height="26" viewBox="0 0 26 26" fill="none" xmlns="http://www.w3.org/2000/svg">
<path d="M25.9294 13.0003C25.9294 20.1422 20.1399 25.9319 12.9981 25.9319C5.85618 25.9319 0.0665894 20.1422 0.0665894 13.0003C0.0665894 5.85844 5.85618 0.0688477 12.9981 0.0688477C20.1398 0.0688477 25.9294 5.85844 25.9294 13.0003Z" fill="#EB5853"/>
<path d="M11.672 12.7736V10.5113H8.60364V8.52832H17.1779V10.5393H14.1095V12.7736H11.672Z" fill="white"/>
<path fill-rule="evenodd" clip-rule="evenodd" d="M7.28455 13.0248C7.28455 12.2707 9.75072 11.6562 12.8191 11.6562C15.8875 11.6562 18.3537 12.2707 18.3537 13.0248C18.3537 13.7789 15.8875 14.3934 12.8191 14.3934C9.75072 14.3934 7.28455 13.7789 7.28455 13.0248ZM17.8948 13.0248C17.6941 12.7455 16.0309 11.8797 12.8191 11.8797C9.60734 11.8797 7.9441 12.7176 7.74337 13.0248C7.9441 13.3041 9.60734 13.723 12.8191 13.723C16.0595 13.723 17.6941 13.3041 17.8948 13.0248Z" fill="white"/>
<path d="M14.1096 13.472V11.9079C13.7081 11.88 13.278 11.8521 12.8478 11.8521C12.4463 11.8521 12.0735 11.8521 11.7007 11.88V13.444C12.0449 13.444 12.4463 13.472 12.8478 13.472C13.278 13.4999 13.7081 13.4999 14.1096 13.472Z" fill="white"/>
<path d="M12.8191 14.3938C12.4176 14.3938 12.0449 14.3938 11.6721 14.3658V18.5273H14.0809V14.3379C13.6794 14.3658 13.2493 14.3938 12.8191 14.3938Z" fill="white"/>
</svg>
